<?xml version="1.0" encoding="iso-8859-1"?>
<!-- Generator: Adobe Illustrator 16.0.0, SVG Export Plug-In . SVG Version: 6.00 Build 0)  -->
<!DOCTYPE svg PUBLIC "-//W3C//DTD SVG 1.1//EN" "http://www.w3.org/Graphics/SVG/1.1/DTD/svg11.dtd">
<svg version="1.1" id="Capa_1" xmlns="http://www.w3.org/2000/svg" xmlns:xlink="http://www.w3.org/1999/xlink" x="0px" y="0px"
	 width="24px" height="24px" viewBox="14 14 38 38" xml:space="preserve">
<g>
	<path d="M37,24v-2c0-1.104-0.896-2-2-2h-6c-1.104,0-2,0.896-2,2v2h-5v2h2v16c0,1.104,0.896,2,2,2h12c1.104,0,2-0.896,2-2V26h2
		v-2H37z M29,22h6v2h-6V22z M38,42H26V26h12V42z M31,28h-2v12h2V28z M35,28h-2v12h2V28z"/>
</g>
</svg>
